<?xml version="1.0" encoding="UTF-8"?>
<svg version="1.1" xmlns="http://www.w3.org/2000/svg" width="192" height="192">
<path d="M0 0 C1.83809235 -0.0149778 1.83809235 -0.0149778 3.71331787 -0.03025818 C6.29859049 -0.04540024 8.88392136 -0.05248519 11.46923828 -0.05200195 C15.39585513 -0.05855036 19.31992491 -0.11304586 23.24609375 -0.16992188 C25.7682206 -0.17872782 28.29035935 -0.18467944 30.8125 -0.1875 C31.97227356 -0.20905655 33.13204712 -0.2306131 34.32696533 -0.25282288 C43.72923657 -0.17495349 51.50643737 2.39356947 58.64508057 8.68284607 C66.22719565 16.43055663 68.48316997 24.04238981 68.421875 34.62890625 C68.37137771 37.25696066 68.28156932 39.87733677 68.171875 42.50390625 C69.40292969 42.766875 70.63398438 43.02984375 71.90234375 43.30078125 C78.43581748 44.94170658 82.64906366 48.99863598 86.109375 54.69140625 C89.09309583 62.5894908 89.68799788 71.83650538 86.21875 79.69140625 C83.28945606 84.76301963 79.55951569 89.02850377 74.171875 91.50390625 C73.181875 91.50390625 72.191875 91.50390625 71.171875 91.50390625 C71.21828125 92.08398438 71.2646875 92.6640625 71.3125 93.26171875 C71.57447057 98.93151031 71.01209646 102.04094618 67.171875 106.50390625 C62.03796172 111.24290313 57.72459615 112.76506948 50.77734375 112.69921875 C49.57529297 112.69277344 48.37324219 112.68632812 47.13476562 112.6796875 C45.26594727 112.65455078 45.26594727 112.65455078 43.359375 112.62890625 C42.09416016 112.61988281 40.82894531 112.61085938 39.52539062 112.6015625 C36.40735936 112.57803019 33.28971403 112.5451517 30.171875 112.50390625 C29.90246094 113.11878906 29.63304688 113.73367187 29.35546875 114.3671875 C27.18003151 118.294462 23.31556272 120.12267701 19.171875 121.50390625 C13.6830245 121.92612552 9.98108587 121.21455238 5.171875 118.50390625 C1.6427262 115.36336035 -0.5283676 112.68152462 -1.703125 108.06640625 C-1.744375 107.22078125 -1.785625 106.37515625 -1.828125 105.50390625 C-2.6325 105.29765625 -3.436875 105.09140625 -4.265625 104.87890625 C-12.14797695 101.83659497 -18.16105107 96.66297695 -23.828125 90.50390625 C-24.54613281 90.82488281 -25.26414062 91.14585938 -26.00390625 91.4765625 C-32.51324959 93.84441492 -38.96713461 93.27784947 -45.203125 90.37890625 C-51.08834107 87.07197531 -54.78888822 83.04905486 -56.828125 76.50390625 C-57.13604753 73.5204953 -57.15285867 70.56365634 -57.140625 67.56640625 C-57.15673828 66.78072266 -57.17285156 65.99503906 -57.18945312 65.18554688 C-57.19551236 57.94476292 -54.84693664 52.80154076 -49.828125 47.50390625 C-46.04615612 44.81410499 -42.39880704 43.28789974 -37.828125 42.50390625 C-37.86292969 41.60929687 -37.89773437 40.7146875 -37.93359375 39.79296875 C-38.19635114 28.05647203 -36.93373057 19.32309786 -28.828125 10.50390625 C-20.13801288 1.54391487 -12.16723145 0.03478121 0 0 Z M-20.140625 20.87890625 C-20.61113281 21.42289063 -21.08164062 21.966875 -21.56640625 22.52734375 C-24.78182287 27.56449795 -25.09992993 32.55187966 -24.953125 38.37890625 C-24.93958984 39.41144531 -24.93958984 39.41144531 -24.92578125 40.46484375 C-24.90245013 42.14468463 -24.86658826 43.82434371 -24.828125 45.50390625 C-24.09980469 45.20484375 -23.37148438 44.90578125 -22.62109375 44.59765625 C-19.828125 43.50390625 -19.828125 43.50390625 -17.44140625 42.78515625 C-14.9080743 41.92494167 -12.96892773 41.12339574 -10.828125 39.50390625 C-9.49556447 36.20147362 -9.18694591 33.02163271 -8.828125 29.50390625 C-7.828125 28.50390625 -7.828125 28.50390625 -5.76171875 28.40625 C-2.29492188 28.45507812 -2.29492188 28.45507812 1.171875 28.50390625 C1.501875 32.13390625 1.831875 35.76390625 2.171875 39.50390625 C10.751875 39.50390625 19.331875 39.50390625 28.171875 39.50390625 C28.831875 36.20390625 29.491875 32.90390625 30.171875 29.50390625 C31.171875 28.50390625 31.171875 28.50390625 33.23828125 28.40625 C36.70507812 28.45507812 36.70507812 28.45507812 40.171875 28.50390625 C40.666875 33.94890625 40.666875 33.94890625 41.171875 39.50390625 C42.739375 40.12265625 44.306875 40.74140625 45.921875 41.37890625 C49.08537086 42.62765461 52.15216712 43.93760917 55.171875 45.50390625 C56.34151784 32.17905166 56.34151784 32.17905166 51.171875 20.50390625 C46.22652197 16.0063216 42.15102125 13.4046824 35.35253906 13.3269043 C33.88521332 13.30765144 33.88521332 13.30765144 32.38824463 13.28800964 C31.3319989 13.28062271 30.27575317 13.27323578 29.1875 13.265625 C28.09854431 13.25755325 27.00958862 13.24948151 25.88763428 13.24116516 C23.58103018 13.22732851 21.27440563 13.21660448 18.96777344 13.20874023 C15.44947233 13.19154116 11.93211422 13.14765154 8.4140625 13.10351562 C6.1718819 13.09338728 3.92969332 13.08487162 1.6875 13.078125 C0.6393512 13.06061691 -0.40879761 13.04310883 -1.4887085 13.02507019 C-9.35185545 13.04828736 -14.90192671 14.59246831 -20.140625 20.87890625 Z M-18.203125 59.37890625 C-20.29569941 66.49365923 -17.98250575 73.08446473 -14.828125 79.50390625 C-11.02773305 84.90730713 -6.29752246 90.29715931 0.046875 92.50390625 C3.64569321 92.50390625 5.21780935 91.33529961 8.18359375 89.44140625 C12.02178991 87.63164774 16.045725 87.92515584 20.171875 88.50390625 C23.5676798 89.86222817 26.1356477 91.47975472 29.171875 93.50390625 C38.65928234 88.38520624 44.7395328 83.4410862 48.4765625 73.125 C50.03363277 67.25536995 50.15666639 62.47348902 47.421875 57.00390625 C44.70980204 53.99049185 42.80768533 52.68962417 38.7571106 52.22975159 C37.41191849 52.21379189 37.41191849 52.21379189 36.03955078 52.19750977 C35.01813995 52.18152237 33.99672913 52.16553497 32.94436646 52.14906311 C31.8463974 52.14370041 30.74842834 52.13833771 29.6171875 52.1328125 C28.482883 52.12378403 27.34857849 52.11475555 26.17990112 52.10545349 C23.78093099 52.09094945 21.38192129 52.08206388 18.98291016 52.07836914 C15.3173544 52.06647272 11.65348178 52.01728512 7.98828125 51.96679688 C5.65625821 51.95733258 3.32422484 51.95009758 0.9921875 51.9453125 C-0.10173309 51.92578018 -1.19565369 51.90624786 -2.32272339 51.88612366 C-9.94386662 51.93119377 -13.58247185 53.07801559 -18.203125 59.37890625 Z M-40.640625 57.94140625 C-41.3625 58.78703125 -42.084375 59.63265625 -42.828125 60.50390625 C-43.158125 60.83390625 -43.488125 61.16390625 -43.828125 61.50390625 C-44.70535067 68.67182699 -44.70535067 68.67182699 -42.74609375 75.375 C-41.27245878 76.87400753 -41.27245878 76.87400753 -38.828125 78.50390625 C-38.498125 78.83390625 -38.168125 79.16390625 -37.828125 79.50390625 C-35.848125 79.50390625 -33.868125 79.50390625 -31.828125 79.50390625 C-31.828125 71.58390625 -31.828125 63.66390625 -31.828125 55.50390625 C-37.69273071 54.84897571 -37.69273071 54.84897571 -40.640625 57.94140625 Z M63.171875 55.50390625 C61.98379507 57.88006611 62.04272978 59.35508045 62.0390625 62.00390625 C62.03777344 62.89078125 62.03648437 63.77765625 62.03515625 64.69140625 C62.03902344 65.61953125 62.04289062 66.54765625 62.046875 67.50390625 C62.04300781 68.43203125 62.03914063 69.36015625 62.03515625 70.31640625 C62.03644531 71.20328125 62.03773438 72.09015625 62.0390625 73.00390625 C62.04019043 73.81859375 62.04131836 74.63328125 62.04248047 75.47265625 C62.04385997 77.57241577 62.04385997 77.57241577 63.171875 79.50390625 C68.46681292 79.2172292 68.46681292 79.2172292 72.546875 76.06640625 C75.21731467 71.8553283 75.85452246 68.46693778 75.171875 63.50390625 C73.15684611 59.75178349 71.71721358 57.8674653 68.171875 55.50390625 C65.54655976 55.33677056 65.54655976 55.33677056 63.171875 55.50390625 Z M54.171875 89.50390625 C53.44871094 90.33535156 53.44871094 90.33535156 52.7109375 91.18359375 C51.76347656 92.27027344 51.76347656 92.27027344 50.796875 93.37890625 C50.17039062 94.09820312 49.54390625 94.8175 48.8984375 95.55859375 C47.69760666 96.91156605 46.4510405 98.22474075 45.171875 99.50390625 C46.77520291 99.58512549 48.37971526 99.64319759 49.984375 99.69140625 C50.87769531 99.72621094 51.77101563 99.76101562 52.69140625 99.796875 C55.21091997 99.70771997 55.21091997 99.70771997 56.984375 98.16015625 C58.60754541 95.89626068 58.3921664 94.22083354 58.171875 91.50390625 C56.851875 90.84390625 55.531875 90.18390625 54.171875 89.50390625 Z M12.171875 101.50390625 C12.00500052 103.92036407 12.00500052 103.92036407 12.171875 106.50390625 C12.831875 107.16390625 13.491875 107.82390625 14.171875 108.50390625 C16.28008297 108.18538855 16.28008297 108.18538855 18.171875 107.50390625 C18.85146103 105.10671193 18.85146103 105.10671193 19.171875 102.50390625 C18.511875 101.84390625 17.851875 101.18390625 17.171875 100.50390625 C14.2464106 100.28029945 14.2464106 100.28029945 12.171875 101.50390625 Z " fill="#3D99DE" transform="translate(80.828125,35.49609375)"/>
<path d="M0 0 C3 2 3 2 5 5 C5.11209642 7.88781741 4.63060547 10.13802132 4 13 C3.34 13 2.68 13 2 13 C2 13.66 2 14.32 2 15 C-5.0812209 16.44024832 -5.0812209 16.44024832 -9 14.5625 C-11.40807853 11.47714939 -11.68562576 9.73672124 -11.4140625 5.90625 C-11 4 -11 4 -9.4375 1.5 C-6.00863886 -0.61006839 -3.95779649 -0.62491523 0 0 Z " fill="#3B90D9" transform="translate(83,96)"/>
<path d="M0 0 C3 2 3 2 5 5 C5.11209642 7.88781741 4.63060547 10.13802132 4 13 C3.34 13 2.68 13 2 13 C2 13.66 2 14.32 2 15 C-0.86197868 15.63060547 -3.11218259 16.11209642 -6 16 C-9 14 -9 14 -11 11 C-11.63007693 7.00951279 -11.63021887 4.98314143 -9.4375 1.5625 C-6.01685857 -0.63021887 -3.99048721 -0.63007693 0 0 Z " fill="#3C91DB" transform="translate(116,96)"/>
</svg>
